<mxfile host="Electron" agent="Mozilla/5.0 (Windows NT 10.0; Win64; x64) AppleWebKit/537.36 (KHTML, like Gecko) draw.io/26.0.16 Chrome/132.0.6834.196 Electron/34.2.0 Safari/537.36" version="26.0.16">
  <diagram name="Página-1" id="SFmodrDmsoPpCotLX6va">
    <mxGraphModel dx="4044" dy="2576" grid="1" gridSize="10" guides="1" tooltips="1" connect="1" arrows="1" fold="1" page="1" pageScale="1" pageWidth="827" pageHeight="1169" math="0" shadow="0">
      <root>
        <mxCell id="0" />
        <mxCell id="1" parent="0" />
        <mxCell id="h65iBEH0PclOGWgKdU9V-25" value="" style="edgeStyle=orthogonalEdgeStyle;rounded=0;orthogonalLoop=1;jettySize=auto;html=1;" parent="1" source="h65iBEH0PclOGWgKdU9V-2" target="h65iBEH0PclOGWgKdU9V-24" edge="1">
          <mxGeometry relative="1" as="geometry" />
        </mxCell>
        <mxCell id="h65iBEH0PclOGWgKdU9V-116" style="edgeStyle=orthogonalEdgeStyle;rounded=0;orthogonalLoop=1;jettySize=auto;html=1;entryX=1;entryY=0.5;entryDx=0;entryDy=0;" parent="1" source="h65iBEH0PclOGWgKdU9V-2" target="h65iBEH0PclOGWgKdU9V-114" edge="1">
          <mxGeometry relative="1" as="geometry" />
        </mxCell>
        <mxCell id="h65iBEH0PclOGWgKdU9V-139" style="edgeStyle=orthogonalEdgeStyle;rounded=0;orthogonalLoop=1;jettySize=auto;html=1;entryX=0.5;entryY=0;entryDx=0;entryDy=0;exitX=1.002;exitY=0.534;exitDx=0;exitDy=0;exitPerimeter=0;" parent="1" source="h65iBEH0PclOGWgKdU9V-2" target="h65iBEH0PclOGWgKdU9V-137" edge="1">
          <mxGeometry relative="1" as="geometry">
            <Array as="points">
              <mxPoint x="-330" y="-468" />
              <mxPoint x="-230" y="-468" />
              <mxPoint x="-230" y="-160" />
              <mxPoint x="-300" y="-160" />
            </Array>
          </mxGeometry>
        </mxCell>
        <mxCell id="h65iBEH0PclOGWgKdU9V-2" value="Times" style="whiteSpace=wrap;html=1;" parent="1" vertex="1">
          <mxGeometry x="-460" y="-500" width="120" height="60" as="geometry" />
        </mxCell>
        <mxCell id="h65iBEH0PclOGWgKdU9V-3" value="ID" style="shape=waypoint;sketch=0;size=6;pointerEvents=1;points=[];fillColor=none;resizable=0;rotatable=0;perimeter=centerPerimeter;snapToPoint=1;align=left;spacingLeft=15;fontStyle=4" parent="1" vertex="1">
          <mxGeometry x="-380" y="-380" width="20" height="20" as="geometry" />
        </mxCell>
        <mxCell id="h65iBEH0PclOGWgKdU9V-4" value="nome" style="shape=waypoint;sketch=0;size=6;pointerEvents=1;points=[];fillColor=none;resizable=0;rotatable=0;perimeter=centerPerimeter;snapToPoint=1;align=left;spacingLeft=15;" parent="1" vertex="1">
          <mxGeometry x="-380" y="-340" width="20" height="20" as="geometry" />
        </mxCell>
        <mxCell id="h65iBEH0PclOGWgKdU9V-5" value="simbulo" style="shape=waypoint;sketch=0;size=6;pointerEvents=1;points=[];fillColor=none;resizable=0;rotatable=0;perimeter=centerPerimeter;snapToPoint=1;align=left;spacingLeft=15;" parent="1" vertex="1">
          <mxGeometry x="-380" y="-300" width="20" height="20" as="geometry" />
        </mxCell>
        <mxCell id="h65iBEH0PclOGWgKdU9V-6" value="cores_predominates " style="shape=waypoint;sketch=0;size=6;pointerEvents=1;points=[];fillColor=none;resizable=0;rotatable=0;perimeter=centerPerimeter;snapToPoint=1;align=left;spacingLeft=15;" parent="1" vertex="1">
          <mxGeometry x="-380" y="-260" width="20" height="20" as="geometry" />
        </mxCell>
        <mxCell id="h65iBEH0PclOGWgKdU9V-7" value="" style="endArrow=none;html=1;rounded=0;exitX=0.5;exitY=1;exitDx=0;exitDy=0;entryX=0.3;entryY=0.3;entryDx=0;entryDy=0;entryPerimeter=0;" parent="1" source="h65iBEH0PclOGWgKdU9V-2" target="h65iBEH0PclOGWgKdU9V-3" edge="1">
          <mxGeometry relative="1" as="geometry">
            <mxPoint x="-450" y="-340" as="sourcePoint" />
            <mxPoint x="-290" y="-340" as="targetPoint" />
            <Array as="points">
              <mxPoint x="-400" y="-370" />
            </Array>
          </mxGeometry>
        </mxCell>
        <mxCell id="h65iBEH0PclOGWgKdU9V-8" value="" style="endArrow=none;html=1;rounded=0;exitX=0.5;exitY=1;exitDx=0;exitDy=0;entryX=0.333;entryY=0.243;entryDx=0;entryDy=0;entryPerimeter=0;" parent="1" source="h65iBEH0PclOGWgKdU9V-2" target="h65iBEH0PclOGWgKdU9V-4" edge="1">
          <mxGeometry relative="1" as="geometry">
            <mxPoint x="-390" y="-420" as="sourcePoint" />
            <mxPoint x="-360" y="-360" as="targetPoint" />
            <Array as="points">
              <mxPoint x="-400" y="-330" />
            </Array>
          </mxGeometry>
        </mxCell>
        <mxCell id="h65iBEH0PclOGWgKdU9V-9" style="edgeStyle=orthogonalEdgeStyle;rounded=0;orthogonalLoop=1;jettySize=auto;html=1;entryX=0.126;entryY=0.622;entryDx=0;entryDy=0;entryPerimeter=0;endArrow=none;startFill=0;" parent="1" source="h65iBEH0PclOGWgKdU9V-2" target="h65iBEH0PclOGWgKdU9V-5" edge="1">
          <mxGeometry relative="1" as="geometry">
            <Array as="points">
              <mxPoint x="-400" y="-290" />
            </Array>
          </mxGeometry>
        </mxCell>
        <mxCell id="h65iBEH0PclOGWgKdU9V-10" style="edgeStyle=orthogonalEdgeStyle;rounded=0;orthogonalLoop=1;jettySize=auto;html=1;entryX=0.229;entryY=0.484;entryDx=0;entryDy=0;entryPerimeter=0;endArrow=none;startFill=0;" parent="1" source="h65iBEH0PclOGWgKdU9V-2" target="h65iBEH0PclOGWgKdU9V-6" edge="1">
          <mxGeometry relative="1" as="geometry">
            <Array as="points">
              <mxPoint x="-400" y="-250" />
            </Array>
          </mxGeometry>
        </mxCell>
        <mxCell id="h65iBEH0PclOGWgKdU9V-26" style="edgeStyle=orthogonalEdgeStyle;rounded=0;orthogonalLoop=1;jettySize=auto;html=1;entryX=1;entryY=0.5;entryDx=0;entryDy=0;" parent="1" source="h65iBEH0PclOGWgKdU9V-11" target="h65iBEH0PclOGWgKdU9V-24" edge="1">
          <mxGeometry relative="1" as="geometry" />
        </mxCell>
        <mxCell id="h65iBEH0PclOGWgKdU9V-11" value="Jogadores" style="whiteSpace=wrap;html=1;" parent="1" vertex="1">
          <mxGeometry x="80" y="-500" width="120" height="60" as="geometry" />
        </mxCell>
        <mxCell id="h65iBEH0PclOGWgKdU9V-12" value="ID" style="shape=waypoint;sketch=0;size=6;pointerEvents=1;points=[];fillColor=none;resizable=0;rotatable=0;perimeter=centerPerimeter;snapToPoint=1;align=left;spacingLeft=15;fontStyle=4;verticalAlign=top;" parent="1" vertex="1">
          <mxGeometry x="160" y="-400" width="20" height="20" as="geometry" />
        </mxCell>
        <mxCell id="h65iBEH0PclOGWgKdU9V-13" value="nome" style="shape=waypoint;sketch=0;size=6;pointerEvents=1;points=[];fillColor=none;resizable=0;rotatable=0;perimeter=centerPerimeter;snapToPoint=1;align=left;spacingLeft=15;verticalAlign=top;" parent="1" vertex="1">
          <mxGeometry x="160" y="-360" width="20" height="20" as="geometry" />
        </mxCell>
        <mxCell id="h65iBEH0PclOGWgKdU9V-14" value="apelido" style="shape=waypoint;sketch=0;size=6;pointerEvents=1;points=[];fillColor=none;resizable=0;rotatable=0;perimeter=centerPerimeter;snapToPoint=1;align=left;spacingLeft=15;verticalAlign=top;" parent="1" vertex="1">
          <mxGeometry x="160" y="-320" width="20" height="20" as="geometry" />
        </mxCell>
        <mxCell id="h65iBEH0PclOGWgKdU9V-15" value="idade" style="shape=waypoint;sketch=0;size=6;pointerEvents=1;points=[];fillColor=none;resizable=0;rotatable=0;perimeter=centerPerimeter;snapToPoint=1;align=left;spacingLeft=15;verticalAlign=top;" parent="1" vertex="1">
          <mxGeometry x="160" y="-280" width="20" height="20" as="geometry" />
        </mxCell>
        <mxCell id="h65iBEH0PclOGWgKdU9V-16" value="numero_camisa" style="shape=waypoint;sketch=0;size=6;pointerEvents=1;points=[];fillColor=none;resizable=0;rotatable=0;perimeter=centerPerimeter;snapToPoint=1;align=left;spacingLeft=15;verticalAlign=top;" parent="1" vertex="1">
          <mxGeometry x="160" y="-240" width="20" height="20" as="geometry" />
        </mxCell>
        <mxCell id="h65iBEH0PclOGWgKdU9V-17" style="edgeStyle=orthogonalEdgeStyle;rounded=0;orthogonalLoop=1;jettySize=auto;html=1;entryX=0;entryY=0.75;entryDx=0;entryDy=0;entryPerimeter=0;endArrow=none;startFill=0;" parent="1" source="h65iBEH0PclOGWgKdU9V-11" target="h65iBEH0PclOGWgKdU9V-12" edge="1">
          <mxGeometry relative="1" as="geometry">
            <Array as="points">
              <mxPoint x="140" y="-390" />
            </Array>
          </mxGeometry>
        </mxCell>
        <mxCell id="h65iBEH0PclOGWgKdU9V-19" style="edgeStyle=orthogonalEdgeStyle;rounded=0;orthogonalLoop=1;jettySize=auto;html=1;entryX=0.25;entryY=0.6;entryDx=0;entryDy=0;entryPerimeter=0;endArrow=none;startFill=0;" parent="1" source="h65iBEH0PclOGWgKdU9V-11" target="h65iBEH0PclOGWgKdU9V-13" edge="1">
          <mxGeometry relative="1" as="geometry">
            <Array as="points">
              <mxPoint x="140" y="-350" />
            </Array>
          </mxGeometry>
        </mxCell>
        <mxCell id="h65iBEH0PclOGWgKdU9V-20" style="edgeStyle=orthogonalEdgeStyle;rounded=0;orthogonalLoop=1;jettySize=auto;html=1;entryX=0.05;entryY=0.85;entryDx=0;entryDy=0;entryPerimeter=0;endArrow=none;startFill=0;" parent="1" source="h65iBEH0PclOGWgKdU9V-11" target="h65iBEH0PclOGWgKdU9V-14" edge="1">
          <mxGeometry relative="1" as="geometry">
            <Array as="points">
              <mxPoint x="140" y="-310" />
            </Array>
          </mxGeometry>
        </mxCell>
        <mxCell id="h65iBEH0PclOGWgKdU9V-21" style="edgeStyle=orthogonalEdgeStyle;rounded=0;orthogonalLoop=1;jettySize=auto;html=1;entryX=0.1;entryY=0.85;entryDx=0;entryDy=0;entryPerimeter=0;endArrow=none;startFill=0;" parent="1" source="h65iBEH0PclOGWgKdU9V-11" target="h65iBEH0PclOGWgKdU9V-15" edge="1">
          <mxGeometry relative="1" as="geometry">
            <Array as="points">
              <mxPoint x="140" y="-270" />
            </Array>
          </mxGeometry>
        </mxCell>
        <mxCell id="h65iBEH0PclOGWgKdU9V-22" style="edgeStyle=orthogonalEdgeStyle;rounded=0;orthogonalLoop=1;jettySize=auto;html=1;entryX=0.45;entryY=0.75;entryDx=0;entryDy=0;entryPerimeter=0;endArrow=none;startFill=0;" parent="1" source="h65iBEH0PclOGWgKdU9V-11" target="h65iBEH0PclOGWgKdU9V-16" edge="1">
          <mxGeometry relative="1" as="geometry">
            <Array as="points">
              <mxPoint x="140" y="-230" />
            </Array>
          </mxGeometry>
        </mxCell>
        <mxCell id="h65iBEH0PclOGWgKdU9V-28" value="" style="edgeStyle=orthogonalEdgeStyle;rounded=0;orthogonalLoop=1;jettySize=auto;html=1;" parent="1" source="h65iBEH0PclOGWgKdU9V-24" target="h65iBEH0PclOGWgKdU9V-27" edge="1">
          <mxGeometry relative="1" as="geometry" />
        </mxCell>
        <mxCell id="h65iBEH0PclOGWgKdU9V-24" value="contrato" style="rhombus;whiteSpace=wrap;html=1;" parent="1" vertex="1">
          <mxGeometry x="-175" y="-500" width="70" height="60" as="geometry" />
        </mxCell>
        <mxCell id="h65iBEH0PclOGWgKdU9V-36" style="edgeStyle=orthogonalEdgeStyle;rounded=0;orthogonalLoop=1;jettySize=auto;html=1;endArrow=none;startFill=0;" parent="1" source="h65iBEH0PclOGWgKdU9V-27" target="h65iBEH0PclOGWgKdU9V-29" edge="1">
          <mxGeometry relative="1" as="geometry">
            <Array as="points">
              <mxPoint x="-140" y="-650" />
            </Array>
          </mxGeometry>
        </mxCell>
        <mxCell id="h65iBEH0PclOGWgKdU9V-27" value="Contrato Jogadores" style="whiteSpace=wrap;html=1;" parent="1" vertex="1">
          <mxGeometry x="-200" y="-580" width="120" height="60" as="geometry" />
        </mxCell>
        <mxCell id="h65iBEH0PclOGWgKdU9V-29" value="ID" style="shape=waypoint;sketch=0;size=6;pointerEvents=1;points=[];fillColor=none;resizable=0;rotatable=0;perimeter=centerPerimeter;snapToPoint=1;align=left;spacingLeft=15;fontStyle=4;verticalAlign=top;" parent="1" vertex="1">
          <mxGeometry x="-120" y="-660" width="20" height="20" as="geometry" />
        </mxCell>
        <mxCell id="h65iBEH0PclOGWgKdU9V-32" value="data_inicial_contrato" style="shape=waypoint;sketch=0;size=6;pointerEvents=1;points=[];fillColor=none;resizable=0;rotatable=0;perimeter=centerPerimeter;snapToPoint=1;align=left;spacingLeft=15;verticalAlign=top;" parent="1" vertex="1">
          <mxGeometry x="-120" y="-780" width="20" height="20" as="geometry" />
        </mxCell>
        <mxCell id="h65iBEH0PclOGWgKdU9V-33" value="data_final_contrato" style="shape=waypoint;sketch=0;size=6;pointerEvents=1;points=[];fillColor=none;resizable=0;rotatable=0;perimeter=centerPerimeter;snapToPoint=1;align=left;spacingLeft=15;verticalAlign=top;" parent="1" vertex="1">
          <mxGeometry x="-120" y="-820" width="20" height="20" as="geometry" />
        </mxCell>
        <mxCell id="h65iBEH0PclOGWgKdU9V-58" style="edgeStyle=orthogonalEdgeStyle;rounded=0;orthogonalLoop=1;jettySize=auto;html=1;entryX=0;entryY=0.5;entryDx=0;entryDy=0;" parent="1" source="h65iBEH0PclOGWgKdU9V-34" target="h65iBEH0PclOGWgKdU9V-57" edge="1">
          <mxGeometry relative="1" as="geometry" />
        </mxCell>
        <mxCell id="h65iBEH0PclOGWgKdU9V-66" style="edgeStyle=orthogonalEdgeStyle;rounded=0;orthogonalLoop=1;jettySize=auto;html=1;entryX=1;entryY=0.5;entryDx=0;entryDy=0;exitX=0.6;exitY=0.8;exitDx=0;exitDy=0;exitPerimeter=0;" parent="1" source="h65iBEH0PclOGWgKdU9V-35" target="h65iBEH0PclOGWgKdU9V-65" edge="1">
          <mxGeometry relative="1" as="geometry" />
        </mxCell>
        <mxCell id="h65iBEH0PclOGWgKdU9V-34" value="nome_jogador" style="shape=waypoint;sketch=0;size=6;pointerEvents=1;points=[];fillColor=none;resizable=0;rotatable=0;perimeter=centerPerimeter;snapToPoint=1;align=left;spacingLeft=15;verticalAlign=top;horizontal=1;" parent="1" vertex="1">
          <mxGeometry x="-120" y="-700" width="20" height="20" as="geometry" />
        </mxCell>
        <mxCell id="h65iBEH0PclOGWgKdU9V-35" value="nome_time" style="shape=waypoint;sketch=0;size=6;pointerEvents=1;points=[];fillColor=none;resizable=0;rotatable=0;perimeter=centerPerimeter;snapToPoint=1;align=left;spacingLeft=15;verticalAlign=top;" parent="1" vertex="1">
          <mxGeometry x="-120" y="-740" width="20" height="20" as="geometry" />
        </mxCell>
        <mxCell id="h65iBEH0PclOGWgKdU9V-43" style="edgeStyle=orthogonalEdgeStyle;rounded=0;orthogonalLoop=1;jettySize=auto;html=1;endArrow=none;startFill=0;exitX=0.5;exitY=0;exitDx=0;exitDy=0;entryX=0.252;entryY=0.313;entryDx=0;entryDy=0;entryPerimeter=0;" parent="1" source="h65iBEH0PclOGWgKdU9V-27" target="h65iBEH0PclOGWgKdU9V-33" edge="1">
          <mxGeometry relative="1" as="geometry">
            <mxPoint x="-140" y="-580" as="sourcePoint" />
            <mxPoint x="-110" y="-890" as="targetPoint" />
            <Array as="points">
              <mxPoint x="-140" y="-810" />
            </Array>
          </mxGeometry>
        </mxCell>
        <mxCell id="h65iBEH0PclOGWgKdU9V-45" style="edgeStyle=orthogonalEdgeStyle;rounded=0;orthogonalLoop=1;jettySize=auto;html=1;entryX=0.55;entryY=0.029;entryDx=0;entryDy=0;entryPerimeter=0;endArrow=none;startFill=0;" parent="1" source="h65iBEH0PclOGWgKdU9V-27" target="h65iBEH0PclOGWgKdU9V-34" edge="1">
          <mxGeometry relative="1" as="geometry">
            <Array as="points">
              <mxPoint x="-140" y="-690" />
            </Array>
          </mxGeometry>
        </mxCell>
        <mxCell id="h65iBEH0PclOGWgKdU9V-46" style="edgeStyle=orthogonalEdgeStyle;rounded=0;orthogonalLoop=1;jettySize=auto;html=1;entryX=0.464;entryY=0.343;entryDx=0;entryDy=0;entryPerimeter=0;endArrow=none;startFill=0;" parent="1" source="h65iBEH0PclOGWgKdU9V-27" target="h65iBEH0PclOGWgKdU9V-35" edge="1">
          <mxGeometry relative="1" as="geometry">
            <Array as="points">
              <mxPoint x="-140" y="-730" />
            </Array>
          </mxGeometry>
        </mxCell>
        <mxCell id="h65iBEH0PclOGWgKdU9V-47" style="edgeStyle=orthogonalEdgeStyle;rounded=0;orthogonalLoop=1;jettySize=auto;html=1;entryX=0.15;entryY=0.229;entryDx=0;entryDy=0;entryPerimeter=0;endArrow=none;startFill=0;" parent="1" source="h65iBEH0PclOGWgKdU9V-27" target="h65iBEH0PclOGWgKdU9V-32" edge="1">
          <mxGeometry relative="1" as="geometry">
            <Array as="points">
              <mxPoint x="-140" y="-770" />
            </Array>
          </mxGeometry>
        </mxCell>
        <mxCell id="h65iBEH0PclOGWgKdU9V-71" style="edgeStyle=orthogonalEdgeStyle;rounded=0;orthogonalLoop=1;jettySize=auto;html=1;endArrow=none;startFill=0;" parent="1" source="h65iBEH0PclOGWgKdU9V-48" target="h65iBEH0PclOGWgKdU9V-51" edge="1">
          <mxGeometry relative="1" as="geometry">
            <Array as="points">
              <mxPoint x="-110" y="32" />
            </Array>
          </mxGeometry>
        </mxCell>
        <mxCell id="h65iBEH0PclOGWgKdU9V-72" style="edgeStyle=orthogonalEdgeStyle;rounded=0;orthogonalLoop=1;jettySize=auto;html=1;endArrow=none;startFill=0;" parent="1" source="h65iBEH0PclOGWgKdU9V-48" target="h65iBEH0PclOGWgKdU9V-53" edge="1">
          <mxGeometry relative="1" as="geometry">
            <Array as="points">
              <mxPoint x="-110" y="72" />
            </Array>
          </mxGeometry>
        </mxCell>
        <mxCell id="h65iBEH0PclOGWgKdU9V-86" value="" style="edgeStyle=orthogonalEdgeStyle;rounded=0;orthogonalLoop=1;jettySize=auto;html=1;" parent="1" source="h65iBEH0PclOGWgKdU9V-48" target="h65iBEH0PclOGWgKdU9V-85" edge="1">
          <mxGeometry relative="1" as="geometry" />
        </mxCell>
        <mxCell id="h65iBEH0PclOGWgKdU9V-138" value="" style="edgeStyle=orthogonalEdgeStyle;rounded=0;orthogonalLoop=1;jettySize=auto;html=1;" parent="1" source="h65iBEH0PclOGWgKdU9V-48" target="h65iBEH0PclOGWgKdU9V-137" edge="1">
          <mxGeometry relative="1" as="geometry" />
        </mxCell>
        <mxCell id="h65iBEH0PclOGWgKdU9V-48" value="Tecnicos" style="whiteSpace=wrap;html=1;" parent="1" vertex="1">
          <mxGeometry x="-170" y="-188" width="120" height="60" as="geometry" />
        </mxCell>
        <mxCell id="h65iBEH0PclOGWgKdU9V-49" value="ID" style="shape=waypoint;sketch=0;size=6;pointerEvents=1;points=[];fillColor=none;resizable=0;rotatable=0;perimeter=centerPerimeter;snapToPoint=1;align=left;spacingLeft=15;fontStyle=4" parent="1" vertex="1">
          <mxGeometry x="-100" y="-98" width="20" height="20" as="geometry" />
        </mxCell>
        <mxCell id="h65iBEH0PclOGWgKdU9V-50" value="time_atual" style="shape=waypoint;sketch=0;size=6;pointerEvents=1;points=[];fillColor=none;resizable=0;rotatable=0;perimeter=centerPerimeter;snapToPoint=1;align=left;spacingLeft=15;" parent="1" vertex="1">
          <mxGeometry x="-100" y="-58" width="20" height="20" as="geometry" />
        </mxCell>
        <mxCell id="h65iBEH0PclOGWgKdU9V-51" value="nome" style="shape=waypoint;sketch=0;size=6;pointerEvents=1;points=[];fillColor=none;resizable=0;rotatable=0;perimeter=centerPerimeter;snapToPoint=1;align=left;spacingLeft=15;" parent="1" vertex="1">
          <mxGeometry x="-100" y="22" width="20" height="20" as="geometry" />
        </mxCell>
        <mxCell id="h65iBEH0PclOGWgKdU9V-52" value="endereco" style="shape=waypoint;sketch=0;size=6;pointerEvents=1;points=[];fillColor=none;resizable=0;rotatable=0;perimeter=centerPerimeter;snapToPoint=1;align=left;spacingLeft=15;" parent="1" vertex="1">
          <mxGeometry x="-100" y="-18" width="20" height="20" as="geometry" />
        </mxCell>
        <mxCell id="h65iBEH0PclOGWgKdU9V-53" value="data_nascimento" style="shape=waypoint;sketch=0;size=6;pointerEvents=1;points=[];fillColor=none;resizable=0;rotatable=0;perimeter=centerPerimeter;snapToPoint=1;align=left;spacingLeft=15;" parent="1" vertex="1">
          <mxGeometry x="-100" y="62" width="20" height="20" as="geometry" />
        </mxCell>
        <mxCell id="h65iBEH0PclOGWgKdU9V-54" value="numero_craf" style="shape=waypoint;sketch=0;size=6;pointerEvents=1;points=[];fillColor=none;resizable=0;rotatable=0;perimeter=centerPerimeter;snapToPoint=1;align=left;spacingLeft=15;" parent="1" vertex="1">
          <mxGeometry x="-100" y="102" width="20" height="20" as="geometry" />
        </mxCell>
        <mxCell id="h65iBEH0PclOGWgKdU9V-57" value="FK" style="rhombus;whiteSpace=wrap;html=1;rotation=0;" parent="1" vertex="1">
          <mxGeometry x="350" y="-707.5" width="40" height="35" as="geometry" />
        </mxCell>
        <mxCell id="h65iBEH0PclOGWgKdU9V-60" style="edgeStyle=orthogonalEdgeStyle;rounded=0;orthogonalLoop=1;jettySize=auto;html=1;entryX=0.687;entryY=0.878;entryDx=0;entryDy=0;entryPerimeter=0;verticalAlign=top;" parent="1" source="h65iBEH0PclOGWgKdU9V-57" target="h65iBEH0PclOGWgKdU9V-12" edge="1">
          <mxGeometry relative="1" as="geometry">
            <Array as="points">
              <mxPoint x="370" y="-390" />
            </Array>
          </mxGeometry>
        </mxCell>
        <mxCell id="h65iBEH0PclOGWgKdU9V-67" style="edgeStyle=orthogonalEdgeStyle;rounded=0;orthogonalLoop=1;jettySize=auto;html=1;exitX=0.5;exitY=1;exitDx=0;exitDy=0;" parent="1" source="h65iBEH0PclOGWgKdU9V-65" target="h65iBEH0PclOGWgKdU9V-3" edge="1">
          <mxGeometry relative="1" as="geometry">
            <Array as="points">
              <mxPoint x="-555" y="-380" />
              <mxPoint x="-370" y="-380" />
            </Array>
          </mxGeometry>
        </mxCell>
        <mxCell id="h65iBEH0PclOGWgKdU9V-65" value="FK" style="rhombus;whiteSpace=wrap;html=1;" parent="1" vertex="1">
          <mxGeometry x="-580" y="-747.5" width="50" height="35" as="geometry" />
        </mxCell>
        <mxCell id="h65iBEH0PclOGWgKdU9V-68" value="" style="endArrow=none;html=1;rounded=0;exitX=0.5;exitY=1;exitDx=0;exitDy=0;" parent="1" source="h65iBEH0PclOGWgKdU9V-48" target="h65iBEH0PclOGWgKdU9V-49" edge="1">
          <mxGeometry relative="1" as="geometry">
            <mxPoint x="-80" y="-38" as="sourcePoint" />
            <mxPoint x="80" y="-38" as="targetPoint" />
            <Array as="points">
              <mxPoint x="-110" y="-88" />
            </Array>
          </mxGeometry>
        </mxCell>
        <mxCell id="h65iBEH0PclOGWgKdU9V-69" value="" style="endArrow=none;html=1;rounded=0;exitX=0.5;exitY=1;exitDx=0;exitDy=0;entryX=0.45;entryY=0.357;entryDx=0;entryDy=0;entryPerimeter=0;" parent="1" source="h65iBEH0PclOGWgKdU9V-48" target="h65iBEH0PclOGWgKdU9V-50" edge="1">
          <mxGeometry relative="1" as="geometry">
            <mxPoint x="-100" y="-148" as="sourcePoint" />
            <mxPoint x="-90" y="-78" as="targetPoint" />
            <Array as="points">
              <mxPoint x="-110" y="-68" />
              <mxPoint x="-110" y="-48" />
            </Array>
          </mxGeometry>
        </mxCell>
        <mxCell id="h65iBEH0PclOGWgKdU9V-70" style="edgeStyle=orthogonalEdgeStyle;rounded=0;orthogonalLoop=1;jettySize=auto;html=1;entryX=0.331;entryY=0.452;entryDx=0;entryDy=0;entryPerimeter=0;endArrow=none;startFill=0;" parent="1" source="h65iBEH0PclOGWgKdU9V-48" target="h65iBEH0PclOGWgKdU9V-52" edge="1">
          <mxGeometry relative="1" as="geometry">
            <Array as="points">
              <mxPoint x="-110" y="-8" />
            </Array>
          </mxGeometry>
        </mxCell>
        <mxCell id="h65iBEH0PclOGWgKdU9V-75" style="edgeStyle=orthogonalEdgeStyle;rounded=0;orthogonalLoop=1;jettySize=auto;html=1;entryX=-0.026;entryY=0.5;entryDx=0;entryDy=0;entryPerimeter=0;endArrow=none;startFill=0;" parent="1" source="h65iBEH0PclOGWgKdU9V-48" target="h65iBEH0PclOGWgKdU9V-54" edge="1">
          <mxGeometry relative="1" as="geometry">
            <Array as="points">
              <mxPoint x="-110" y="112" />
            </Array>
          </mxGeometry>
        </mxCell>
        <mxCell id="h65iBEH0PclOGWgKdU9V-87" style="edgeStyle=orthogonalEdgeStyle;rounded=0;orthogonalLoop=1;jettySize=auto;html=1;entryX=1;entryY=0.5;entryDx=0;entryDy=0;" parent="1" source="h65iBEH0PclOGWgKdU9V-76" target="h65iBEH0PclOGWgKdU9V-85" edge="1">
          <mxGeometry relative="1" as="geometry" />
        </mxCell>
        <mxCell id="h65iBEH0PclOGWgKdU9V-76" value="Enderecos" style="whiteSpace=wrap;html=1;" parent="1" vertex="1">
          <mxGeometry x="260" y="-188" width="120" height="60" as="geometry" />
        </mxCell>
        <mxCell id="h65iBEH0PclOGWgKdU9V-77" value="ID" style="shape=waypoint;sketch=0;size=6;pointerEvents=1;points=[];fillColor=none;resizable=0;rotatable=0;perimeter=centerPerimeter;snapToPoint=1;align=left;spacingLeft=15;fontStyle=4" parent="1" vertex="1">
          <mxGeometry x="340" y="-98" width="20" height="20" as="geometry" />
        </mxCell>
        <mxCell id="h65iBEH0PclOGWgKdU9V-78" value="cep" style="shape=waypoint;sketch=0;size=6;pointerEvents=1;points=[];fillColor=none;resizable=0;rotatable=0;perimeter=centerPerimeter;snapToPoint=1;align=left;spacingLeft=15;" parent="1" vertex="1">
          <mxGeometry x="340" y="-58" width="20" height="20" as="geometry" />
        </mxCell>
        <mxCell id="h65iBEH0PclOGWgKdU9V-79" value="numero_casa" style="shape=waypoint;sketch=0;size=6;pointerEvents=1;points=[];fillColor=none;resizable=0;rotatable=0;perimeter=centerPerimeter;snapToPoint=1;align=left;spacingLeft=15;" parent="1" vertex="1">
          <mxGeometry x="340" y="-18" width="20" height="20" as="geometry" />
        </mxCell>
        <mxCell id="h65iBEH0PclOGWgKdU9V-80" value="complemento" style="shape=waypoint;sketch=0;size=6;pointerEvents=1;points=[];fillColor=none;resizable=0;rotatable=0;perimeter=centerPerimeter;snapToPoint=1;align=left;spacingLeft=15;" parent="1" vertex="1">
          <mxGeometry x="340" y="22" width="20" height="20" as="geometry" />
        </mxCell>
        <mxCell id="h65iBEH0PclOGWgKdU9V-81" style="edgeStyle=orthogonalEdgeStyle;rounded=0;orthogonalLoop=1;jettySize=auto;html=1;entryX=-0.092;entryY=0.5;entryDx=0;entryDy=0;entryPerimeter=0;endArrow=none;startFill=0;" parent="1" source="h65iBEH0PclOGWgKdU9V-76" target="h65iBEH0PclOGWgKdU9V-77" edge="1">
          <mxGeometry relative="1" as="geometry">
            <Array as="points">
              <mxPoint x="320" y="-88" />
            </Array>
          </mxGeometry>
        </mxCell>
        <mxCell id="h65iBEH0PclOGWgKdU9V-82" style="edgeStyle=orthogonalEdgeStyle;rounded=0;orthogonalLoop=1;jettySize=auto;html=1;endArrow=none;startFill=0;exitX=0.5;exitY=1;exitDx=0;exitDy=0;" parent="1" source="h65iBEH0PclOGWgKdU9V-76" target="h65iBEH0PclOGWgKdU9V-78" edge="1">
          <mxGeometry relative="1" as="geometry">
            <mxPoint x="330.0003030303035" y="-148" as="sourcePoint" />
            <mxPoint x="339.9700000000005" y="-48" as="targetPoint" />
            <Array as="points">
              <mxPoint x="320" y="-48" />
            </Array>
          </mxGeometry>
        </mxCell>
        <mxCell id="h65iBEH0PclOGWgKdU9V-83" style="edgeStyle=orthogonalEdgeStyle;rounded=0;orthogonalLoop=1;jettySize=auto;html=1;entryX=0.15;entryY=0.652;entryDx=0;entryDy=0;entryPerimeter=0;endArrow=none;startFill=0;" parent="1" source="h65iBEH0PclOGWgKdU9V-76" target="h65iBEH0PclOGWgKdU9V-79" edge="1">
          <mxGeometry relative="1" as="geometry">
            <Array as="points">
              <mxPoint x="320" y="-8" />
            </Array>
          </mxGeometry>
        </mxCell>
        <mxCell id="h65iBEH0PclOGWgKdU9V-84" style="edgeStyle=orthogonalEdgeStyle;rounded=0;orthogonalLoop=1;jettySize=auto;html=1;entryX=0.544;entryY=0.833;entryDx=0;entryDy=0;entryPerimeter=0;endArrow=none;startFill=0;" parent="1" source="h65iBEH0PclOGWgKdU9V-76" target="h65iBEH0PclOGWgKdU9V-80" edge="1">
          <mxGeometry relative="1" as="geometry">
            <Array as="points">
              <mxPoint x="320" y="32" />
            </Array>
          </mxGeometry>
        </mxCell>
        <mxCell id="h65iBEH0PclOGWgKdU9V-85" value="endereco" style="rhombus;whiteSpace=wrap;html=1;" parent="1" vertex="1">
          <mxGeometry x="50" y="-183" width="70" height="50" as="geometry" />
        </mxCell>
        <mxCell id="h65iBEH0PclOGWgKdU9V-88" value="1:1" style="text;html=1;align=center;verticalAlign=middle;resizable=0;points=[];autosize=1;strokeColor=none;fillColor=none;" parent="1" vertex="1">
          <mxGeometry y="-188" width="40" height="30" as="geometry" />
        </mxCell>
        <mxCell id="h65iBEH0PclOGWgKdU9V-89" value="0:1" style="text;html=1;align=center;verticalAlign=middle;resizable=0;points=[];autosize=1;strokeColor=none;fillColor=none;" parent="1" vertex="1">
          <mxGeometry x="130" y="-188" width="40" height="30" as="geometry" />
        </mxCell>
        <mxCell id="h65iBEH0PclOGWgKdU9V-90" value="0:N" style="text;html=1;align=center;verticalAlign=middle;resizable=0;points=[];autosize=1;strokeColor=none;fillColor=none;" parent="1" vertex="1">
          <mxGeometry x="-330" y="-502" width="40" height="30" as="geometry" />
        </mxCell>
        <mxCell id="h65iBEH0PclOGWgKdU9V-91" value="0:N" style="text;html=1;align=center;verticalAlign=middle;resizable=0;points=[];autosize=1;strokeColor=none;fillColor=none;" parent="1" vertex="1">
          <mxGeometry x="20" y="-510" width="40" height="30" as="geometry" />
        </mxCell>
        <mxCell id="h65iBEH0PclOGWgKdU9V-92" value="FK" style="rhombus;whiteSpace=wrap;html=1;" parent="1" vertex="1">
          <mxGeometry x="-330" y="-88" width="40" height="40" as="geometry" />
        </mxCell>
        <mxCell id="h65iBEH0PclOGWgKdU9V-93" style="edgeStyle=orthogonalEdgeStyle;rounded=0;orthogonalLoop=1;jettySize=auto;html=1;entryX=0.703;entryY=0.832;entryDx=0;entryDy=0;entryPerimeter=0;" parent="1" source="h65iBEH0PclOGWgKdU9V-92" target="h65iBEH0PclOGWgKdU9V-50" edge="1">
          <mxGeometry relative="1" as="geometry" />
        </mxCell>
        <mxCell id="h65iBEH0PclOGWgKdU9V-94" style="edgeStyle=orthogonalEdgeStyle;rounded=0;orthogonalLoop=1;jettySize=auto;html=1;entryX=0.624;entryY=1.016;entryDx=0;entryDy=0;entryPerimeter=0;" parent="1" source="h65iBEH0PclOGWgKdU9V-92" target="h65iBEH0PclOGWgKdU9V-3" edge="1">
          <mxGeometry relative="1" as="geometry">
            <Array as="points">
              <mxPoint x="-500" y="-360" />
              <mxPoint x="-370" y="-360" />
            </Array>
          </mxGeometry>
        </mxCell>
        <mxCell id="h65iBEH0PclOGWgKdU9V-96" value="FK" style="rhombus;whiteSpace=wrap;html=1;" parent="1" vertex="1">
          <mxGeometry x="-330" y="-8" width="40" height="40" as="geometry" />
        </mxCell>
        <mxCell id="h65iBEH0PclOGWgKdU9V-97" style="edgeStyle=orthogonalEdgeStyle;rounded=0;orthogonalLoop=1;jettySize=auto;html=1;entryX=0.5;entryY=0.5;entryDx=0;entryDy=0;entryPerimeter=0;" parent="1" source="h65iBEH0PclOGWgKdU9V-96" target="h65iBEH0PclOGWgKdU9V-52" edge="1">
          <mxGeometry relative="1" as="geometry" />
        </mxCell>
        <mxCell id="h65iBEH0PclOGWgKdU9V-98" style="edgeStyle=orthogonalEdgeStyle;rounded=0;orthogonalLoop=1;jettySize=auto;html=1;entryX=0.703;entryY=0.358;entryDx=0;entryDy=0;entryPerimeter=0;" parent="1" source="h65iBEH0PclOGWgKdU9V-96" target="h65iBEH0PclOGWgKdU9V-77" edge="1">
          <mxGeometry relative="1" as="geometry">
            <Array as="points">
              <mxPoint x="-310" y="152" />
              <mxPoint x="190" y="152" />
              <mxPoint x="190" y="-88" />
            </Array>
          </mxGeometry>
        </mxCell>
        <mxCell id="h65iBEH0PclOGWgKdU9V-107" style="edgeStyle=orthogonalEdgeStyle;rounded=0;orthogonalLoop=1;jettySize=auto;html=1;endArrow=none;startFill=0;entryX=0.333;entryY=0.54;entryDx=0;entryDy=0;entryPerimeter=0;" parent="1" source="h65iBEH0PclOGWgKdU9V-99" target="h65iBEH0PclOGWgKdU9V-103" edge="1">
          <mxGeometry relative="1" as="geometry">
            <Array as="points">
              <mxPoint x="-850" y="-370" />
            </Array>
          </mxGeometry>
        </mxCell>
        <mxCell id="h65iBEH0PclOGWgKdU9V-109" style="edgeStyle=orthogonalEdgeStyle;rounded=0;orthogonalLoop=1;jettySize=auto;html=1;endArrow=none;endFill=1;startFill=0;" parent="1" source="h65iBEH0PclOGWgKdU9V-99" target="h65iBEH0PclOGWgKdU9V-106" edge="1">
          <mxGeometry relative="1" as="geometry">
            <Array as="points">
              <mxPoint x="-850" y="-290" />
            </Array>
          </mxGeometry>
        </mxCell>
        <mxCell id="h65iBEH0PclOGWgKdU9V-115" style="edgeStyle=orthogonalEdgeStyle;rounded=0;orthogonalLoop=1;jettySize=auto;html=1;entryX=0;entryY=0.5;entryDx=0;entryDy=0;" parent="1" source="h65iBEH0PclOGWgKdU9V-99" target="h65iBEH0PclOGWgKdU9V-114" edge="1">
          <mxGeometry relative="1" as="geometry" />
        </mxCell>
        <mxCell id="h65iBEH0PclOGWgKdU9V-123" style="edgeStyle=orthogonalEdgeStyle;rounded=0;orthogonalLoop=1;jettySize=auto;html=1;endArrow=none;startFill=0;" parent="1" source="h65iBEH0PclOGWgKdU9V-99" target="h65iBEH0PclOGWgKdU9V-119" edge="1">
          <mxGeometry relative="1" as="geometry">
            <Array as="points">
              <mxPoint x="-850" y="-210" />
            </Array>
          </mxGeometry>
        </mxCell>
        <mxCell id="h65iBEH0PclOGWgKdU9V-99" value="Jogos" style="whiteSpace=wrap;html=1;" parent="1" vertex="1">
          <mxGeometry x="-910" y="-500" width="120" height="60" as="geometry" />
        </mxCell>
        <mxCell id="h65iBEH0PclOGWgKdU9V-103" value="ID" style="shape=waypoint;sketch=0;size=6;pointerEvents=1;points=[];fillColor=none;resizable=0;rotatable=0;perimeter=centerPerimeter;snapToPoint=1;align=left;spacingLeft=15;verticalAlign=top;fontStyle=4" parent="1" vertex="1">
          <mxGeometry x="-830" y="-380" width="20" height="20" as="geometry" />
        </mxCell>
        <mxCell id="h65iBEH0PclOGWgKdU9V-105" value="estadio" style="shape=waypoint;sketch=0;size=6;pointerEvents=1;points=[];fillColor=none;resizable=0;rotatable=0;perimeter=centerPerimeter;snapToPoint=1;align=left;spacingLeft=15;verticalAlign=top;" parent="1" vertex="1">
          <mxGeometry x="-830" y="-340" width="20" height="20" as="geometry" />
        </mxCell>
        <mxCell id="h65iBEH0PclOGWgKdU9V-106" value="data" style="shape=waypoint;sketch=0;size=6;pointerEvents=1;points=[];fillColor=none;resizable=0;rotatable=0;perimeter=centerPerimeter;snapToPoint=1;align=left;spacingLeft=15;verticalAlign=top;" parent="1" vertex="1">
          <mxGeometry x="-830" y="-300" width="20" height="20" as="geometry" />
        </mxCell>
        <mxCell id="h65iBEH0PclOGWgKdU9V-108" style="edgeStyle=orthogonalEdgeStyle;rounded=0;orthogonalLoop=1;jettySize=auto;html=1;entryX=0.429;entryY=0.805;entryDx=0;entryDy=0;entryPerimeter=0;endArrow=none;startFill=0;" parent="1" source="h65iBEH0PclOGWgKdU9V-99" target="h65iBEH0PclOGWgKdU9V-105" edge="1">
          <mxGeometry relative="1" as="geometry">
            <Array as="points">
              <mxPoint x="-850" y="-330" />
            </Array>
          </mxGeometry>
        </mxCell>
        <mxCell id="h65iBEH0PclOGWgKdU9V-114" value="jogo" style="rhombus;whiteSpace=wrap;html=1;" parent="1" vertex="1">
          <mxGeometry x="-630" y="-495" width="60" height="50" as="geometry" />
        </mxCell>
        <mxCell id="h65iBEH0PclOGWgKdU9V-144" style="edgeStyle=orthogonalEdgeStyle;rounded=0;orthogonalLoop=1;jettySize=auto;html=1;entryX=0;entryY=0.5;entryDx=0;entryDy=0;" parent="1" source="h65iBEH0PclOGWgKdU9V-118" target="h65iBEH0PclOGWgKdU9V-143" edge="1">
          <mxGeometry relative="1" as="geometry" />
        </mxCell>
        <mxCell id="h65iBEH0PclOGWgKdU9V-118" value="time_casa" style="shape=waypoint;sketch=0;size=6;pointerEvents=1;points=[];fillColor=none;resizable=0;rotatable=0;perimeter=centerPerimeter;snapToPoint=1;align=left;spacingLeft=15;verticalAlign=top;" parent="1" vertex="1">
          <mxGeometry x="-830" y="-260" width="20" height="20" as="geometry" />
        </mxCell>
        <mxCell id="h65iBEH0PclOGWgKdU9V-154" style="edgeStyle=orthogonalEdgeStyle;rounded=0;orthogonalLoop=1;jettySize=auto;html=1;entryX=0;entryY=0.5;entryDx=0;entryDy=0;" parent="1" source="h65iBEH0PclOGWgKdU9V-119" target="h65iBEH0PclOGWgKdU9V-153" edge="1">
          <mxGeometry relative="1" as="geometry" />
        </mxCell>
        <mxCell id="h65iBEH0PclOGWgKdU9V-119" value="time_visitante" style="shape=waypoint;sketch=0;size=6;pointerEvents=1;points=[];fillColor=none;resizable=0;rotatable=0;perimeter=centerPerimeter;snapToPoint=1;align=left;spacingLeft=15;verticalAlign=top;" parent="1" vertex="1">
          <mxGeometry x="-830" y="-220" width="20" height="20" as="geometry" />
        </mxCell>
        <mxCell id="h65iBEH0PclOGWgKdU9V-120" value="gols_casa" style="shape=waypoint;sketch=0;size=6;pointerEvents=1;points=[];fillColor=none;resizable=0;rotatable=0;perimeter=centerPerimeter;snapToPoint=1;align=left;spacingLeft=15;verticalAlign=top;" parent="1" vertex="1">
          <mxGeometry x="-830" y="-180" width="20" height="20" as="geometry" />
        </mxCell>
        <mxCell id="h65iBEH0PclOGWgKdU9V-121" value="gols_visitante" style="shape=waypoint;sketch=0;size=6;pointerEvents=1;points=[];fillColor=none;resizable=0;rotatable=0;perimeter=centerPerimeter;snapToPoint=1;align=left;spacingLeft=15;verticalAlign=top;" parent="1" vertex="1">
          <mxGeometry x="-830" y="-140" width="20" height="20" as="geometry" />
        </mxCell>
        <mxCell id="h65iBEH0PclOGWgKdU9V-122" style="edgeStyle=orthogonalEdgeStyle;rounded=0;orthogonalLoop=1;jettySize=auto;html=1;entryX=0.6;entryY=0.733;entryDx=0;entryDy=0;entryPerimeter=0;endArrow=none;startFill=0;" parent="1" source="h65iBEH0PclOGWgKdU9V-99" target="h65iBEH0PclOGWgKdU9V-118" edge="1">
          <mxGeometry relative="1" as="geometry">
            <Array as="points">
              <mxPoint x="-850" y="-250" />
            </Array>
          </mxGeometry>
        </mxCell>
        <mxCell id="h65iBEH0PclOGWgKdU9V-125" style="edgeStyle=orthogonalEdgeStyle;rounded=0;orthogonalLoop=1;jettySize=auto;html=1;entryX=0.033;entryY=0.6;entryDx=0;entryDy=0;entryPerimeter=0;endArrow=none;startFill=0;" parent="1" source="h65iBEH0PclOGWgKdU9V-99" target="h65iBEH0PclOGWgKdU9V-120" edge="1">
          <mxGeometry relative="1" as="geometry">
            <Array as="points">
              <mxPoint x="-850" y="-170" />
            </Array>
          </mxGeometry>
        </mxCell>
        <mxCell id="h65iBEH0PclOGWgKdU9V-126" style="edgeStyle=orthogonalEdgeStyle;rounded=0;orthogonalLoop=1;jettySize=auto;html=1;entryX=0.333;entryY=0.6;entryDx=0;entryDy=0;entryPerimeter=0;endArrow=none;startFill=0;" parent="1" source="h65iBEH0PclOGWgKdU9V-99" target="h65iBEH0PclOGWgKdU9V-121" edge="1">
          <mxGeometry relative="1" as="geometry">
            <Array as="points">
              <mxPoint x="-850" y="-130" />
            </Array>
          </mxGeometry>
        </mxCell>
        <mxCell id="h65iBEH0PclOGWgKdU9V-137" value="contrato" style="rhombus;whiteSpace=wrap;html=1;" parent="1" vertex="1">
          <mxGeometry x="-137.5" y="-328" width="55" height="50" as="geometry" />
        </mxCell>
        <mxCell id="h65iBEH0PclOGWgKdU9V-140" value="0:1" style="text;html=1;align=center;verticalAlign=middle;resizable=0;points=[];autosize=1;strokeColor=none;fillColor=none;" parent="1" vertex="1">
          <mxGeometry x="-110" y="-400" width="40" height="30" as="geometry" />
        </mxCell>
        <mxCell id="h65iBEH0PclOGWgKdU9V-141" value="0:1" style="text;html=1;align=center;verticalAlign=middle;resizable=0;points=[];autosize=1;strokeColor=none;fillColor=none;rotation=90;" parent="1" vertex="1">
          <mxGeometry x="-145" y="-260" width="40" height="30" as="geometry" />
        </mxCell>
        <mxCell id="h65iBEH0PclOGWgKdU9V-143" value="FK" style="rhombus;whiteSpace=wrap;html=1;" parent="1" vertex="1">
          <mxGeometry x="-670" y="-285" width="40" height="40" as="geometry" />
        </mxCell>
        <mxCell id="h65iBEH0PclOGWgKdU9V-145" style="edgeStyle=orthogonalEdgeStyle;rounded=0;orthogonalLoop=1;jettySize=auto;html=1;entryX=0.678;entryY=0.691;entryDx=0;entryDy=0;entryPerimeter=0;" parent="1" source="h65iBEH0PclOGWgKdU9V-143" target="h65iBEH0PclOGWgKdU9V-3" edge="1">
          <mxGeometry relative="1" as="geometry">
            <Array as="points">
              <mxPoint x="-560" y="-260" />
              <mxPoint x="-560" y="-370" />
            </Array>
          </mxGeometry>
        </mxCell>
        <mxCell id="h65iBEH0PclOGWgKdU9V-150" value="1:N" style="text;html=1;align=center;verticalAlign=middle;resizable=0;points=[];autosize=1;strokeColor=none;fillColor=none;" parent="1" vertex="1">
          <mxGeometry x="-630" y="-285" width="40" height="30" as="geometry" />
        </mxCell>
        <mxCell id="h65iBEH0PclOGWgKdU9V-151" value="1,1" style="text;strokeColor=none;align=center;fillColor=none;html=1;verticalAlign=middle;whiteSpace=wrap;rounded=0;" parent="1" vertex="1">
          <mxGeometry x="-730" y="-285" width="60" height="30" as="geometry" />
        </mxCell>
        <mxCell id="h65iBEH0PclOGWgKdU9V-153" value="FK" style="rhombus;whiteSpace=wrap;html=1;" parent="1" vertex="1">
          <mxGeometry x="-670" y="-240" width="40" height="40" as="geometry" />
        </mxCell>
        <mxCell id="h65iBEH0PclOGWgKdU9V-155" value="1,1" style="text;strokeColor=none;align=center;fillColor=none;html=1;verticalAlign=middle;whiteSpace=wrap;rounded=0;" parent="1" vertex="1">
          <mxGeometry x="-730" y="-250" width="60" height="30" as="geometry" />
        </mxCell>
        <mxCell id="h65iBEH0PclOGWgKdU9V-156" style="edgeStyle=orthogonalEdgeStyle;rounded=0;orthogonalLoop=1;jettySize=auto;html=1;exitX=1;exitY=0.5;exitDx=0;exitDy=0;entryX=0.486;entryY=0.314;entryDx=0;entryDy=0;entryPerimeter=0;" parent="1" source="h65iBEH0PclOGWgKdU9V-153" target="h65iBEH0PclOGWgKdU9V-3" edge="1">
          <mxGeometry relative="1" as="geometry">
            <Array as="points">
              <mxPoint x="-560" y="-220" />
              <mxPoint x="-560" y="-370" />
            </Array>
          </mxGeometry>
        </mxCell>
        <mxCell id="h65iBEH0PclOGWgKdU9V-157" value="1:N" style="text;html=1;align=center;verticalAlign=middle;resizable=0;points=[];autosize=1;strokeColor=none;fillColor=none;" parent="1" vertex="1">
          <mxGeometry x="-630" y="-250" width="40" height="30" as="geometry" />
        </mxCell>
        <mxCell id="h65iBEH0PclOGWgKdU9V-158" value="0:N" style="text;html=1;align=center;verticalAlign=middle;resizable=0;points=[];autosize=1;strokeColor=none;fillColor=none;" parent="1" vertex="1">
          <mxGeometry x="-780" y="-502" width="40" height="30" as="geometry" />
        </mxCell>
        <mxCell id="h65iBEH0PclOGWgKdU9V-159" value="0:N" style="text;html=1;align=center;verticalAlign=middle;resizable=0;points=[];autosize=1;strokeColor=none;fillColor=none;" parent="1" vertex="1">
          <mxGeometry x="-510" y="-502" width="40" height="30" as="geometry" />
        </mxCell>
      </root>
    </mxGraphModel>
  </diagram>
</mxfile>
